# 3ds Max Wavefront OBJ Exporter v0.97b - (c)2007 guruware
# File Created: 19.10.2015 12:19:36

mtllib 3d-model.mtl

#
# object gaveta_porta_c__perfil_alumínio_001
#

v  -9.6063 26.9935 0.4921
v  -9.6063 0.0000 0.4921
v  9.6063 0.0000 0.4921
v  9.6063 26.9935 0.4921
v  -9.6063 0.0000 -0.4921
v  9.6063 0.0000 -0.4921
v  -9.6063 26.9935 -0.2953
v  9.6063 26.9935 -0.2953
v  9.6063 26.9935 -0.4921
v  -9.6063 26.9935 -0.4921
v  9.6063 27.9777 -0.2953
v  9.6063 28.1746 -0.4921
v  9.6063 27.9777 0.2953
v  9.6063 28.1746 0.4921
v  9.6063 27.5840 0.2953
v  9.6063 27.5840 0.4921
v  -9.6063 28.1746 -0.4921
v  -9.6063 28.1746 0.4921
v  -9.6063 27.5840 0.4921
v  -9.6063 27.5840 0.2953
v  -9.6063 27.9777 0.2953
v  -9.6063 27.9777 -0.2953
# 22 vertices

vn -0.0000 -0.0000 1.0000
vn 0.0000 -1.0000 -0.0000
vn -0.0000 1.0000 0.0000
vn 1.0000 0.0000 -0.0000
vn -1.0000 0.0000 0.0000
vn 1.0000 -0.0000 0.0000
vn 0.0000 0.0000 -1.0000
# 7 vertex normals

vt 0.1694 -1.0168 0.0000
vt 0.1694 -1.4818 0.0000
vt 1.3147 -1.4818 0.0000
vt 1.3147 -1.0168 0.0000
vt -6.1791 2.4006 0.0000
vt -6.1791 2.4757 0.0000
vt -7.1551 2.4757 0.0000
vt -7.1551 2.4006 0.0000
vt -0.3447 -1.1564 0.0000
vt -0.3047 -1.1564 0.0000
vt -0.3047 0.3103 0.0000
vt -0.3447 0.3103 0.0000
vt 1.6375 1.7014 0.0000
vt 1.5975 1.7014 0.0000
vt 1.5975 -0.3593 0.0000
vt 1.6475 -0.3593 0.0000
vt 1.6475 1.7014 0.0000
vt -1.5975 -0.3593 0.0000
vt -1.5975 1.7014 0.0000
vt -1.6375 1.7014 0.0000
vt -1.6475 -0.3593 0.0000
vt -1.6475 1.7014 0.0000
vt 0.0000 0.0000 0.0000
# 23 texture coords

g gaveta_porta_c__perfil_alumínio_001
usemtl wire_229166215
s off
f 1/1/1 2/2/1 3/3/1 4/4/1 
f 2/5/2 5/6/2 6/7/2 3/8/2 
f 7/9/3 1/10/3 4/11/3 8/12/3 
f 8/13/4 4/14/4 3/15/4 6/16/4 
f 8/13/4 6/16/4 9/17/4 
f 2/18/5 1/19/5 7/20/5 5/21/5 
f 5/21/5 7/20/5 10/22/5 
f 11/23/6 8/23/6 9/23/6 12/23/6 
f 13/23/6 11/23/6 12/23/6 14/23/6 
f 15/23/6 13/23/6 14/23/6 16/23/6 
f 17/23/3 18/23/3 14/23/3 12/23/3 
f 19/23/2 20/23/2 15/23/2 16/23/2 
f 21/23/2 22/23/2 11/23/2 13/23/2 
f 22/23/1 7/23/1 8/23/1 11/23/1 
f 18/23/1 19/23/1 16/23/1 14/23/1 
f 21/23/5 19/23/5 18/23/5 17/23/5 
f 22/23/5 21/23/5 17/23/5 7/23/5 
f 7/23/5 17/23/5 10/23/5 
f 20/23/5 19/23/5 21/23/5 
f 6/23/7 5/23/7 10/23/7 9/23/7 
f 9/23/7 10/23/7 17/23/7 12/23/7 
f 15/23/7 20/23/7 21/23/7 13/23/7 
# 18 polygons - 4 triangles

