# 3ds Max Wavefront OBJ Exporter v0.97b - (c)2007 guruware
# File Created: 12.09.2015 16:47:51

mtllib 3d-model.mtl

#
# object Layer0_001
#

v  -12018.9619 0.0000 1346.9938
v  -12018.9619 0.0000 -1346.9938
v  12018.9629 0.0000 -1346.9938
v  12018.9629 0.0000 1346.9938
v  -12018.9619 57637.3633 -1346.9938
v  -12018.9619 57637.3633 1346.9938
v  12018.9629 57637.3633 1346.9938
v  12018.9629 57637.3633 -1346.9938
v  8712.2832 5332.8887 1346.9938
v  8712.2832 54361.2344 1346.9938
v  -8729.9541 54361.2344 1346.9938
v  -8999.4551 5332.8887 1346.9938
v  -8999.4551 5332.8887 678.6563
v  8712.2832 5332.8887 678.6563
v  8712.2832 54361.2344 678.6563
v  -8729.9541 54361.2344 678.6563
v  -8999.4551 5332.8887 -1346.9938
v  -8729.9541 54361.2344 -1346.9938
v  8712.2832 54361.2344 -1346.9938
v  8712.2832 5332.8887 -1346.9938
v  8712.2832 5332.8887 -678.6563
v  8712.2832 54361.2344 -678.6563
v  -8729.9541 54361.2344 -678.6563
v  -8999.4551 5332.8887 -678.6563
# 24 vertices

vn 0.0000 -1.0000 -0.0000
vn 0.0000 1.0000 -0.0000
vn -1.0000 0.0000 -0.0000
vn 1.0000 0.0000 -0.0000
vn 0.0000 0.0000 1.0000
vn 1.0000 -0.0055 -0.0000
vn 0.0000 0.0000 -1.0000
# 7 vertex normals

vt -0.4688 -0.7831 0.0000
vt -0.3628 -0.7831 0.0000
vt -0.3628 -0.3733 0.0000
vt -0.4688 -0.3733 0.0000
vt 2.4495 -1.1633 0.0000
vt 2.3434 -1.1633 0.0000
vt 2.3434 -1.5732 0.0000
vt 2.4495 -1.5732 0.0000
vt 0.1497 0.0065 0.0000
vt 0.1497 0.9892 0.0000
vt 0.0437 0.9892 0.0000
vt 0.0437 0.0065 0.0000
vt 2.0408 -2.0098 0.0000
vt 2.0408 -2.9925 0.0000
vt 2.1469 -2.9925 0.0000
vt 2.1469 -2.0098 0.0000
vt 0.8398 0.0982 0.0000
vt 0.0236 0.0073 0.0000
vt 0.9699 0.0073 0.0000
vt 0.9699 0.9899 0.0000
vt 0.8398 0.9341 0.0000
vt 0.1531 0.9341 0.0000
vt 0.0236 0.9899 0.0000
vt 0.1424 0.0982 0.0000
vt -0.1078 0.9831 0.0000
vt -0.1078 0.1472 0.0000
vt -0.0815 0.1472 0.0000
vt -0.0815 0.9831 0.0000
vt 0.1445 -0.0122 0.0000
vt 0.1445 -0.0236 0.0000
vt 0.8418 -0.0236 0.0000
vt 0.8418 -0.0122 0.0000
vt 0.0503 0.0521 0.0000
vt 0.0503 0.8880 0.0000
vt 0.0239 0.8880 0.0000
vt 0.0239 0.0521 0.0000
vt -0.1605 -0.0331 0.0000
vt -0.1605 -0.0217 0.0000
vt -0.8472 -0.0217 0.0000
vt -0.8472 -0.0331 0.0000
# 40 texture coords

g Layer0_001
usemtl wire_134110008
s off
f 1/1/1 2/2/1 3/3/1 4/4/1 
f 5/5/2 6/6/2 7/7/2 8/8/2 
f 1/9/3 6/10/3 5/11/3 2/12/3 
f 7/13/4 4/14/4 3/15/4 8/16/4 
f 9/17/5 1/18/5 4/19/5 7/20/5 
f 10/21/5 9/17/5 7/20/5 11/22/5 
f 11/22/5 7/20/5 6/23/5 12/24/5 
f 12/24/5 6/23/5 1/18/5 9/17/5 
f 13/24/5 14/17/5 15/21/5 16/22/5 
f 11/25/6 12/26/6 13/27/6 16/28/6 
f 13/29/2 12/30/2 9/31/2 14/32/2 
f 9/33/3 10/34/3 15/35/3 14/36/3 
f 11/37/1 16/38/1 15/39/1 10/40/1 
f 17/24/7 3/19/7 2/18/7 5/23/7 
f 18/22/7 17/24/7 5/23/7 19/21/7 
f 19/21/7 5/23/7 8/20/7 20/17/7 
f 20/17/7 8/20/7 3/19/7 17/24/7 
f 21/36/3 22/35/3 19/34/3 20/33/3 
f 23/38/1 18/37/1 19/40/1 22/39/1 
f 21/17/7 24/24/7 23/22/7 22/21/7 
f 23/28/6 24/27/6 17/26/6 18/25/6 
f 17/30/2 24/29/2 21/32/2 20/31/2 
# 22 polygons

